<svg width="1363" height="163" viewBox="0 0 1363 163" fill="none" xmlns="http://www.w3.org/2000/svg">
<path d="M0 15C0 6.71573 6.71573 0 15 0H37V163H15C6.71573 163 0 156.284 0 148V15Z" fill="#424242"/>
<rect width="1097" height="163" transform="translate(37)" fill="#F0F0F0"/>
<path d="M101.906 53.9219L94.3945 51.2383V48.0859L104.602 52.375V54.6367L101.906 53.9219ZM94.3945 56.1719L101.918 53.4297L104.602 52.7852V55.0352L94.3945 59.3242V56.1719ZM119.801 55.7617V43.9375H123.305V55.7617C123.305 56.9023 123.055 57.8828 122.555 58.7031C122.055 59.5156 121.371 60.1406 120.504 60.5781C119.645 61.0156 118.676 61.2344 117.598 61.2344C116.48 61.2344 115.492 61.0469 114.633 60.6719C113.773 60.2969 113.098 59.7227 112.605 58.9492C112.113 58.168 111.867 57.1797 111.867 55.9844H115.395C115.395 56.6094 115.48 57.1055 115.652 57.4727C115.832 57.8398 116.086 58.1016 116.414 58.2578C116.742 58.4141 117.137 58.4922 117.598 58.4922C118.043 58.4922 118.43 58.3867 118.758 58.1758C119.086 57.9648 119.34 57.6562 119.52 57.25C119.707 56.8438 119.801 56.3477 119.801 55.7617ZM132.938 58.1406V52.4922C132.938 52.0859 132.871 51.7383 132.738 51.4492C132.605 51.1523 132.398 50.9219 132.117 50.7578C131.844 50.5938 131.488 50.5117 131.051 50.5117C130.676 50.5117 130.352 50.5781 130.078 50.7109C129.805 50.8359 129.594 51.0195 129.445 51.2617C129.297 51.4961 129.223 51.7734 129.223 52.0938H125.848C125.848 51.5547 125.973 51.043 126.223 50.5586C126.473 50.0742 126.836 49.6484 127.312 49.2812C127.789 48.9062 128.355 48.6133 129.012 48.4023C129.676 48.1914 130.418 48.0859 131.238 48.0859C132.223 48.0859 133.098 48.25 133.863 48.5781C134.629 48.9062 135.23 49.3984 135.668 50.0547C136.113 50.7109 136.336 51.5312 136.336 52.5156V57.9414C136.336 58.6367 136.379 59.207 136.465 59.6523C136.551 60.0898 136.676 60.4727 136.84 60.8008V61H133.43C133.266 60.6562 133.141 60.2266 133.055 59.7109C132.977 59.1875 132.938 58.6641 132.938 58.1406ZM133.383 53.2773L133.406 55.1875H131.52C131.074 55.1875 130.688 55.2383 130.359 55.3398C130.031 55.4414 129.762 55.5859 129.551 55.7734C129.34 55.9531 129.184 56.1641 129.082 56.4062C128.988 56.6484 128.941 56.9141 128.941 57.2031C128.941 57.4922 129.008 57.7539 129.141 57.9883C129.273 58.2148 129.465 58.3945 129.715 58.5273C129.965 58.6523 130.258 58.7148 130.594 58.7148C131.102 58.7148 131.543 58.6133 131.918 58.4102C132.293 58.207 132.582 57.957 132.785 57.6602C132.996 57.3633 133.105 57.082 133.113 56.8164L134.004 58.2461C133.879 58.5664 133.707 58.8984 133.488 59.2422C133.277 59.5859 133.008 59.9102 132.68 60.2148C132.352 60.5117 131.957 60.7578 131.496 60.9531C131.035 61.1406 130.488 61.2344 129.855 61.2344C129.051 61.2344 128.32 61.0742 127.664 60.7539C127.016 60.4258 126.5 59.9766 126.117 59.4062C125.742 58.8281 125.555 58.1719 125.555 57.4375C125.555 56.7734 125.68 56.1836 125.93 55.668C126.18 55.1523 126.547 54.7188 127.031 54.3672C127.523 54.0078 128.137 53.7383 128.871 53.5586C129.605 53.3711 130.457 53.2773 131.426 53.2773H133.383ZM140.754 43.9375H143.73L148.113 56.4648L152.496 43.9375H155.473L149.309 61H146.918L140.754 43.9375ZM139.148 43.9375H142.113L142.652 56.1484V61H139.148V43.9375ZM154.113 43.9375H157.09V61H153.574V56.1484L154.113 43.9375ZM166.805 58.1406V52.4922C166.805 52.0859 166.738 51.7383 166.605 51.4492C166.473 51.1523 166.266 50.9219 165.984 50.7578C165.711 50.5938 165.355 50.5117 164.918 50.5117C164.543 50.5117 164.219 50.5781 163.945 50.7109C163.672 50.8359 163.461 51.0195 163.312 51.2617C163.164 51.4961 163.09 51.7734 163.09 52.0938H159.715C159.715 51.5547 159.84 51.043 160.09 50.5586C160.34 50.0742 160.703 49.6484 161.18 49.2812C161.656 48.9062 162.223 48.6133 162.879 48.4023C163.543 48.1914 164.285 48.0859 165.105 48.0859C166.09 48.0859 166.965 48.25 167.73 48.5781C168.496 48.9062 169.098 49.3984 169.535 50.0547C169.98 50.7109 170.203 51.5312 170.203 52.5156V57.9414C170.203 58.6367 170.246 59.207 170.332 59.6523C170.418 60.0898 170.543 60.4727 170.707 60.8008V61H167.297C167.133 60.6562 167.008 60.2266 166.922 59.7109C166.844 59.1875 166.805 58.6641 166.805 58.1406ZM167.25 53.2773L167.273 55.1875H165.387C164.941 55.1875 164.555 55.2383 164.227 55.3398C163.898 55.4414 163.629 55.5859 163.418 55.7734C163.207 55.9531 163.051 56.1641 162.949 56.4062C162.855 56.6484 162.809 56.9141 162.809 57.2031C162.809 57.4922 162.875 57.7539 163.008 57.9883C163.141 58.2148 163.332 58.3945 163.582 58.5273C163.832 58.6523 164.125 58.7148 164.461 58.7148C164.969 58.7148 165.41 58.6133 165.785 58.4102C166.16 58.207 166.449 57.957 166.652 57.6602C166.863 57.3633 166.973 57.082 166.98 56.8164L167.871 58.2461C167.746 58.5664 167.574 58.8984 167.355 59.2422C167.145 59.5859 166.875 59.9102 166.547 60.2148C166.219 60.5117 165.824 60.7578 165.363 60.9531C164.902 61.1406 164.355 61.2344 163.723 61.2344C162.918 61.2344 162.188 61.0742 161.531 60.7539C160.883 60.4258 160.367 59.9766 159.984 59.4062C159.609 58.8281 159.422 58.1719 159.422 57.4375C159.422 56.7734 159.547 56.1836 159.797 55.668C160.047 55.1523 160.414 54.7188 160.898 54.3672C161.391 54.0078 162.004 53.7383 162.738 53.5586C163.473 53.3711 164.324 53.2773 165.293 53.2773H167.25ZM179.016 48.3203V50.7109H171.633V48.3203H179.016ZM173.461 45.1914H176.836V57.1797C176.836 57.5469 176.883 57.8281 176.977 58.0234C177.078 58.2188 177.227 58.3555 177.422 58.4336C177.617 58.5039 177.863 58.5391 178.16 58.5391C178.371 58.5391 178.559 58.5312 178.723 58.5156C178.895 58.4922 179.039 58.4688 179.156 58.4453L179.168 60.9297C178.879 61.0234 178.566 61.0977 178.23 61.1523C177.895 61.207 177.523 61.2344 177.117 61.2344C176.375 61.2344 175.727 61.1133 175.172 60.8711C174.625 60.6211 174.203 60.2227 173.906 59.6758C173.609 59.1289 173.461 58.4102 173.461 57.5195V45.1914ZM186.773 61.2344C185.789 61.2344 184.906 61.0781 184.125 60.7656C183.344 60.4453 182.68 60.0039 182.133 59.4414C181.594 58.8789 181.18 58.2266 180.891 57.4844C180.602 56.7344 180.457 55.9375 180.457 55.0938V54.625C180.457 53.6641 180.594 52.7852 180.867 51.9883C181.141 51.1914 181.531 50.5 182.039 49.9141C182.555 49.3281 183.18 48.8789 183.914 48.5664C184.648 48.2461 185.477 48.0859 186.398 48.0859C187.297 48.0859 188.094 48.2344 188.789 48.5312C189.484 48.8281 190.066 49.25 190.535 49.7969C191.012 50.3438 191.371 51 191.613 51.7656C191.855 52.5234 191.977 53.3672 191.977 54.2969V55.7031H181.898V53.4531H188.66V53.1953C188.66 52.7266 188.574 52.3086 188.402 51.9414C188.238 51.5664 187.988 51.2695 187.652 51.0508C187.316 50.832 186.887 50.7227 186.363 50.7227C185.918 50.7227 185.535 50.8203 185.215 51.0156C184.895 51.2109 184.633 51.4844 184.43 51.8359C184.234 52.1875 184.086 52.6016 183.984 53.0781C183.891 53.5469 183.844 54.0625 183.844 54.625V55.0938C183.844 55.6016 183.914 56.0703 184.055 56.5C184.203 56.9297 184.41 57.3008 184.676 57.6133C184.949 57.9258 185.277 58.168 185.66 58.3398C186.051 58.5117 186.492 58.5977 186.984 58.5977C187.594 58.5977 188.16 58.4805 188.684 58.2461C189.215 58.0039 189.672 57.6406 190.055 57.1562L191.695 58.9375C191.43 59.3203 191.066 59.6875 190.605 60.0391C190.152 60.3906 189.605 60.6797 188.965 60.9062C188.324 61.125 187.594 61.2344 186.773 61.2344Z" fill="#888888"/>
<path d="M106.688 119H99.1172L99.1641 112.672H106.688C108.25 112.672 109.57 112.297 110.648 111.547C111.742 110.797 112.57 109.68 113.133 108.195C113.711 106.695 114 104.852 114 102.664V101.188C114 99.5469 113.836 98.1094 113.508 96.875C113.195 95.625 112.727 94.5859 112.102 93.7578C111.477 92.9141 110.695 92.2812 109.758 91.8594C108.836 91.4375 107.773 91.2266 106.57 91.2266H98.9766V84.875H106.57C108.883 84.875 111 85.2734 112.922 86.0703C114.859 86.8516 116.531 87.9766 117.938 89.4453C119.359 90.8984 120.453 92.625 121.219 94.625C122 96.6094 122.391 98.8125 122.391 101.234V102.664C122.391 105.07 122 107.273 121.219 109.273C120.453 111.273 119.367 113 117.961 114.453C116.555 115.906 114.891 117.031 112.969 117.828C111.062 118.609 108.969 119 106.688 119ZM103.828 84.875V119H95.6016V84.875H103.828ZM138.586 119.469C136.523 119.469 134.68 119.148 133.055 118.508C131.43 117.852 130.055 116.953 128.93 115.812C127.82 114.672 126.969 113.359 126.375 111.875C125.797 110.391 125.508 108.82 125.508 107.164V106.273C125.508 104.414 125.766 102.695 126.281 101.117C126.797 99.5234 127.562 98.1328 128.578 96.9453C129.594 95.7578 130.867 94.8359 132.398 94.1797C133.93 93.5078 135.711 93.1719 137.742 93.1719C139.539 93.1719 141.148 93.4609 142.57 94.0391C143.992 94.6172 145.195 95.4453 146.18 96.5234C147.18 97.6016 147.938 98.9062 148.453 100.438C148.984 101.969 149.25 103.688 149.25 105.594V108.805H128.531V103.859H141.539V103.25C141.555 102.406 141.406 101.688 141.094 101.094C140.797 100.5 140.359 100.047 139.781 99.7344C139.203 99.4219 138.5 99.2656 137.672 99.2656C136.812 99.2656 136.102 99.4531 135.539 99.8281C134.992 100.203 134.562 100.719 134.25 101.375C133.953 102.016 133.742 102.758 133.617 103.602C133.492 104.445 133.43 105.336 133.43 106.273V107.164C133.43 108.102 133.555 108.953 133.805 109.719C134.07 110.484 134.445 111.141 134.93 111.688C135.43 112.219 136.023 112.633 136.711 112.93C137.414 113.227 138.211 113.375 139.102 113.375C140.18 113.375 141.242 113.172 142.289 112.766C143.336 112.359 144.234 111.688 144.984 110.75L148.57 115.016C148.055 115.75 147.32 116.461 146.367 117.148C145.43 117.836 144.305 118.398 142.992 118.836C141.68 119.258 140.211 119.469 138.586 119.469ZM160.43 99.0078V119H152.531V93.6406H159.938L160.43 99.0078ZM159.469 105.453L157.664 105.5C157.664 103.719 157.875 102.078 158.297 100.578C158.719 99.0781 159.344 97.7734 160.172 96.6641C161 95.5547 162.016 94.6953 163.219 94.0859C164.438 93.4766 165.844 93.1719 167.438 93.1719C168.547 93.1719 169.555 93.3438 170.461 93.6875C171.367 94.0156 172.148 94.5391 172.805 95.2578C173.461 95.9609 173.961 96.8828 174.305 98.0234C174.664 99.1484 174.844 100.5 174.844 102.078V119H166.945V103.086C166.945 102.008 166.82 101.195 166.57 100.648C166.336 100.102 165.992 99.7344 165.539 99.5469C165.086 99.3594 164.531 99.2656 163.875 99.2656C163.188 99.2656 162.57 99.4219 162.023 99.7344C161.477 100.047 161.008 100.484 160.617 101.047C160.242 101.594 159.953 102.242 159.75 102.992C159.562 103.742 159.469 104.562 159.469 105.453ZM173.953 105.453L171.75 105.5C171.75 103.719 171.945 102.078 172.336 100.578C172.742 99.0781 173.344 97.7734 174.141 96.6641C174.953 95.5547 175.961 94.6953 177.164 94.0859C178.367 93.4766 179.766 93.1719 181.359 93.1719C182.516 93.1719 183.578 93.3438 184.547 93.6875C185.516 94.0312 186.352 94.5859 187.055 95.3516C187.758 96.1172 188.305 97.1328 188.695 98.3984C189.086 99.6484 189.281 101.195 189.281 103.039V119H181.359V103.039C181.359 101.992 181.234 101.203 180.984 100.672C180.75 100.125 180.406 99.7578 179.953 99.5703C179.5 99.3672 178.961 99.2656 178.336 99.2656C177.586 99.2656 176.938 99.4219 176.391 99.7344C175.844 100.047 175.383 100.484 175.008 101.047C174.648 101.594 174.383 102.242 174.211 102.992C174.039 103.742 173.953 104.562 173.953 105.453ZM192.82 106.578V106.086C192.82 104.227 193.086 102.516 193.617 100.953C194.148 99.375 194.93 98.0078 195.961 96.8516C196.992 95.6953 198.266 94.7969 199.781 94.1562C201.297 93.5 203.047 93.1719 205.031 93.1719C207.031 93.1719 208.789 93.5 210.305 94.1562C211.836 94.7969 213.117 95.6953 214.148 96.8516C215.18 98.0078 215.961 99.375 216.492 100.953C217.023 102.516 217.289 104.227 217.289 106.086V106.578C217.289 108.422 217.023 110.133 216.492 111.711C215.961 113.273 215.18 114.641 214.148 115.812C213.117 116.969 211.844 117.867 210.328 118.508C208.812 119.148 207.062 119.469 205.078 119.469C203.094 119.469 201.336 119.148 199.805 118.508C198.273 117.867 196.992 116.969 195.961 115.812C194.93 114.641 194.148 113.273 193.617 111.711C193.086 110.133 192.82 108.422 192.82 106.578ZM200.719 106.086V106.578C200.719 107.531 200.789 108.422 200.93 109.25C201.07 110.078 201.305 110.805 201.633 111.43C201.961 112.039 202.406 112.516 202.969 112.859C203.531 113.203 204.234 113.375 205.078 113.375C205.906 113.375 206.594 113.203 207.141 112.859C207.703 112.516 208.148 112.039 208.477 111.43C208.805 110.805 209.039 110.078 209.18 109.25C209.32 108.422 209.391 107.531 209.391 106.578V106.086C209.391 105.164 209.32 104.297 209.18 103.484C209.039 102.656 208.805 101.93 208.477 101.305C208.148 100.664 207.703 100.164 207.141 99.8047C206.578 99.4453 205.875 99.2656 205.031 99.2656C204.203 99.2656 203.508 99.4453 202.945 99.8047C202.398 100.164 201.961 100.664 201.633 101.305C201.305 101.93 201.07 102.656 200.93 103.484C200.789 104.297 200.719 105.164 200.719 106.086Z" fill="black"/>
<path d="M1134 0H1348C1356.28 0 1363 6.71573 1363 15V148C1363 156.284 1356.28 163 1348 163H1134V0Z" fill="#6C63FF"/>
<path d="M1280.07 47.5H1216.93L1214.5 49.9286V113.071L1216.93 115.5H1280.07L1282.5 113.071V49.9286L1280.07 47.5ZM1277.64 110.643H1233.93V100.929H1245.1C1246.56 103.843 1249.96 105.786 1253.36 105.786C1258.7 105.786 1263.07 101.414 1263.07 96.0714C1263.07 90.7286 1258.7 86.3571 1253.36 86.3571C1248.01 86.3571 1243.64 90.7286 1243.64 96.0714H1229.07V110.643H1219.36V52.3571H1229.07V63.5286C1226.16 64.9857 1224.21 68.3857 1224.21 71.7857C1224.21 77.1286 1228.59 81.5 1233.93 81.5C1239.27 81.5 1243.64 77.1286 1243.64 71.7857H1253.36C1253.36 77.1286 1257.73 81.5 1263.07 81.5C1268.41 81.5 1272.79 77.1286 1272.79 71.7857C1272.79 66.4429 1268.41 62.0714 1263.07 62.0714C1259.67 62.0714 1256.27 64.0143 1254.81 66.9286H1242.19C1240.73 64.0143 1237.33 62.0714 1233.93 62.0714V52.3571H1277.64V110.643ZM1248.5 96.0714C1248.5 93.1571 1250.44 91.2143 1253.36 91.2143C1256.27 91.2143 1258.21 93.1571 1258.21 96.0714C1258.21 98.9857 1256.27 100.929 1253.36 100.929C1250.44 100.929 1248.5 98.9857 1248.5 96.0714ZM1233.93 66.9286C1236.84 66.9286 1238.79 68.8714 1238.79 71.7857C1238.79 74.7 1236.84 76.6429 1233.93 76.6429C1231.01 76.6429 1229.07 74.7 1229.07 71.7857C1229.07 68.8714 1231.01 66.9286 1233.93 66.9286ZM1263.07 66.9286C1265.99 66.9286 1267.93 68.8714 1267.93 71.7857C1267.93 74.7 1265.99 76.6429 1263.07 76.6429C1260.16 76.6429 1258.21 74.7 1258.21 71.7857C1258.21 68.8714 1260.16 66.9286 1263.07 66.9286Z" fill="white"/>
</svg>
