<svg width="1363" height="163" viewBox="0 0 1363 163" fill="none" xmlns="http://www.w3.org/2000/svg">
<path d="M0 15C0 6.71573 6.71573 0 15 0H37V163H15C6.71573 163 0 156.284 0 148V15Z" fill="#424242"/>
<rect width="1097" height="163" transform="translate(37)" fill="#F0F0F0"/>
<path d="M101.906 53.9219L94.3945 51.2383V48.0859L104.602 52.375V54.6367L101.906 53.9219ZM94.3945 56.1719L101.918 53.4297L104.602 52.7852V55.0352L94.3945 59.3242V56.1719ZM119.801 55.7617V43.9375H123.305V55.7617C123.305 56.9023 123.055 57.8828 122.555 58.7031C122.055 59.5156 121.371 60.1406 120.504 60.5781C119.645 61.0156 118.676 61.2344 117.598 61.2344C116.48 61.2344 115.492 61.0469 114.633 60.6719C113.773 60.2969 113.098 59.7227 112.605 58.9492C112.113 58.168 111.867 57.1797 111.867 55.9844H115.395C115.395 56.6094 115.48 57.1055 115.652 57.4727C115.832 57.8398 116.086 58.1016 116.414 58.2578C116.742 58.4141 117.137 58.4922 117.598 58.4922C118.043 58.4922 118.43 58.3867 118.758 58.1758C119.086 57.9648 119.34 57.6562 119.52 57.25C119.707 56.8438 119.801 56.3477 119.801 55.7617ZM132.938 58.1406V52.4922C132.938 52.0859 132.871 51.7383 132.738 51.4492C132.605 51.1523 132.398 50.9219 132.117 50.7578C131.844 50.5938 131.488 50.5117 131.051 50.5117C130.676 50.5117 130.352 50.5781 130.078 50.7109C129.805 50.8359 129.594 51.0195 129.445 51.2617C129.297 51.4961 129.223 51.7734 129.223 52.0938H125.848C125.848 51.5547 125.973 51.043 126.223 50.5586C126.473 50.0742 126.836 49.6484 127.312 49.2812C127.789 48.9062 128.355 48.6133 129.012 48.4023C129.676 48.1914 130.418 48.0859 131.238 48.0859C132.223 48.0859 133.098 48.25 133.863 48.5781C134.629 48.9062 135.23 49.3984 135.668 50.0547C136.113 50.7109 136.336 51.5312 136.336 52.5156V57.9414C136.336 58.6367 136.379 59.207 136.465 59.6523C136.551 60.0898 136.676 60.4727 136.84 60.8008V61H133.43C133.266 60.6562 133.141 60.2266 133.055 59.7109C132.977 59.1875 132.938 58.6641 132.938 58.1406ZM133.383 53.2773L133.406 55.1875H131.52C131.074 55.1875 130.688 55.2383 130.359 55.3398C130.031 55.4414 129.762 55.5859 129.551 55.7734C129.34 55.9531 129.184 56.1641 129.082 56.4062C128.988 56.6484 128.941 56.9141 128.941 57.2031C128.941 57.4922 129.008 57.7539 129.141 57.9883C129.273 58.2148 129.465 58.3945 129.715 58.5273C129.965 58.6523 130.258 58.7148 130.594 58.7148C131.102 58.7148 131.543 58.6133 131.918 58.4102C132.293 58.207 132.582 57.957 132.785 57.6602C132.996 57.3633 133.105 57.082 133.113 56.8164L134.004 58.2461C133.879 58.5664 133.707 58.8984 133.488 59.2422C133.277 59.5859 133.008 59.9102 132.68 60.2148C132.352 60.5117 131.957 60.7578 131.496 60.9531C131.035 61.1406 130.488 61.2344 129.855 61.2344C129.051 61.2344 128.32 61.0742 127.664 60.7539C127.016 60.4258 126.5 59.9766 126.117 59.4062C125.742 58.8281 125.555 58.1719 125.555 57.4375C125.555 56.7734 125.68 56.1836 125.93 55.668C126.18 55.1523 126.547 54.7188 127.031 54.3672C127.523 54.0078 128.137 53.7383 128.871 53.5586C129.605 53.3711 130.457 53.2773 131.426 53.2773H133.383ZM140.754 43.9375H143.73L148.113 56.4648L152.496 43.9375H155.473L149.309 61H146.918L140.754 43.9375ZM139.148 43.9375H142.113L142.652 56.1484V61H139.148V43.9375ZM154.113 43.9375H157.09V61H153.574V56.1484L154.113 43.9375ZM166.805 58.1406V52.4922C166.805 52.0859 166.738 51.7383 166.605 51.4492C166.473 51.1523 166.266 50.9219 165.984 50.7578C165.711 50.5938 165.355 50.5117 164.918 50.5117C164.543 50.5117 164.219 50.5781 163.945 50.7109C163.672 50.8359 163.461 51.0195 163.312 51.2617C163.164 51.4961 163.09 51.7734 163.09 52.0938H159.715C159.715 51.5547 159.84 51.043 160.09 50.5586C160.34 50.0742 160.703 49.6484 161.18 49.2812C161.656 48.9062 162.223 48.6133 162.879 48.4023C163.543 48.1914 164.285 48.0859 165.105 48.0859C166.09 48.0859 166.965 48.25 167.73 48.5781C168.496 48.9062 169.098 49.3984 169.535 50.0547C169.98 50.7109 170.203 51.5312 170.203 52.5156V57.9414C170.203 58.6367 170.246 59.207 170.332 59.6523C170.418 60.0898 170.543 60.4727 170.707 60.8008V61H167.297C167.133 60.6562 167.008 60.2266 166.922 59.7109C166.844 59.1875 166.805 58.6641 166.805 58.1406ZM167.25 53.2773L167.273 55.1875H165.387C164.941 55.1875 164.555 55.2383 164.227 55.3398C163.898 55.4414 163.629 55.5859 163.418 55.7734C163.207 55.9531 163.051 56.1641 162.949 56.4062C162.855 56.6484 162.809 56.9141 162.809 57.2031C162.809 57.4922 162.875 57.7539 163.008 57.9883C163.141 58.2148 163.332 58.3945 163.582 58.5273C163.832 58.6523 164.125 58.7148 164.461 58.7148C164.969 58.7148 165.41 58.6133 165.785 58.4102C166.16 58.207 166.449 57.957 166.652 57.6602C166.863 57.3633 166.973 57.082 166.98 56.8164L167.871 58.2461C167.746 58.5664 167.574 58.8984 167.355 59.2422C167.145 59.5859 166.875 59.9102 166.547 60.2148C166.219 60.5117 165.824 60.7578 165.363 60.9531C164.902 61.1406 164.355 61.2344 163.723 61.2344C162.918 61.2344 162.188 61.0742 161.531 60.7539C160.883 60.4258 160.367 59.9766 159.984 59.4062C159.609 58.8281 159.422 58.1719 159.422 57.4375C159.422 56.7734 159.547 56.1836 159.797 55.668C160.047 55.1523 160.414 54.7188 160.898 54.3672C161.391 54.0078 162.004 53.7383 162.738 53.5586C163.473 53.3711 164.324 53.2773 165.293 53.2773H167.25ZM179.016 48.3203V50.7109H171.633V48.3203H179.016ZM173.461 45.1914H176.836V57.1797C176.836 57.5469 176.883 57.8281 176.977 58.0234C177.078 58.2188 177.227 58.3555 177.422 58.4336C177.617 58.5039 177.863 58.5391 178.16 58.5391C178.371 58.5391 178.559 58.5312 178.723 58.5156C178.895 58.4922 179.039 58.4688 179.156 58.4453L179.168 60.9297C178.879 61.0234 178.566 61.0977 178.23 61.1523C177.895 61.207 177.523 61.2344 177.117 61.2344C176.375 61.2344 175.727 61.1133 175.172 60.8711C174.625 60.6211 174.203 60.2227 173.906 59.6758C173.609 59.1289 173.461 58.4102 173.461 57.5195V45.1914ZM186.773 61.2344C185.789 61.2344 184.906 61.0781 184.125 60.7656C183.344 60.4453 182.68 60.0039 182.133 59.4414C181.594 58.8789 181.18 58.2266 180.891 57.4844C180.602 56.7344 180.457 55.9375 180.457 55.0938V54.625C180.457 53.6641 180.594 52.7852 180.867 51.9883C181.141 51.1914 181.531 50.5 182.039 49.9141C182.555 49.3281 183.18 48.8789 183.914 48.5664C184.648 48.2461 185.477 48.0859 186.398 48.0859C187.297 48.0859 188.094 48.2344 188.789 48.5312C189.484 48.8281 190.066 49.25 190.535 49.7969C191.012 50.3438 191.371 51 191.613 51.7656C191.855 52.5234 191.977 53.3672 191.977 54.2969V55.7031H181.898V53.4531H188.66V53.1953C188.66 52.7266 188.574 52.3086 188.402 51.9414C188.238 51.5664 187.988 51.2695 187.652 51.0508C187.316 50.832 186.887 50.7227 186.363 50.7227C185.918 50.7227 185.535 50.8203 185.215 51.0156C184.895 51.2109 184.633 51.4844 184.43 51.8359C184.234 52.1875 184.086 52.6016 183.984 53.0781C183.891 53.5469 183.844 54.0625 183.844 54.625V55.0938C183.844 55.6016 183.914 56.0703 184.055 56.5C184.203 56.9297 184.41 57.3008 184.676 57.6133C184.949 57.9258 185.277 58.168 185.66 58.3398C186.051 58.5117 186.492 58.5977 186.984 58.5977C187.594 58.5977 188.16 58.4805 188.684 58.2461C189.215 58.0039 189.672 57.6406 190.055 57.1562L191.695 58.9375C191.43 59.3203 191.066 59.6875 190.605 60.0391C190.152 60.3906 189.605 60.6797 188.965 60.9062C188.324 61.125 187.594 61.2344 186.773 61.2344Z" fill="#888888"/>
<path d="M106.688 119H99.1172L99.1641 112.672H106.688C108.25 112.672 109.57 112.297 110.648 111.547C111.742 110.797 112.57 109.68 113.133 108.195C113.711 106.695 114 104.852 114 102.664V101.188C114 99.5469 113.836 98.1094 113.508 96.875C113.195 95.625 112.727 94.5859 112.102 93.7578C111.477 92.9141 110.695 92.2812 109.758 91.8594C108.836 91.4375 107.773 91.2266 106.57 91.2266H98.9766V84.875H106.57C108.883 84.875 111 85.2734 112.922 86.0703C114.859 86.8516 116.531 87.9766 117.938 89.4453C119.359 90.8984 120.453 92.625 121.219 94.625C122 96.6094 122.391 98.8125 122.391 101.234V102.664C122.391 105.07 122 107.273 121.219 109.273C120.453 111.273 119.367 113 117.961 114.453C116.555 115.906 114.891 117.031 112.969 117.828C111.062 118.609 108.969 119 106.688 119ZM103.828 84.875V119H95.6016V84.875H103.828ZM138.586 119.469C136.523 119.469 134.68 119.148 133.055 118.508C131.43 117.852 130.055 116.953 128.93 115.812C127.82 114.672 126.969 113.359 126.375 111.875C125.797 110.391 125.508 108.82 125.508 107.164V106.273C125.508 104.414 125.766 102.695 126.281 101.117C126.797 99.5234 127.562 98.1328 128.578 96.9453C129.594 95.7578 130.867 94.8359 132.398 94.1797C133.93 93.5078 135.711 93.1719 137.742 93.1719C139.539 93.1719 141.148 93.4609 142.57 94.0391C143.992 94.6172 145.195 95.4453 146.18 96.5234C147.18 97.6016 147.938 98.9062 148.453 100.438C148.984 101.969 149.25 103.688 149.25 105.594V108.805H128.531V103.859H141.539V103.25C141.555 102.406 141.406 101.688 141.094 101.094C140.797 100.5 140.359 100.047 139.781 99.7344C139.203 99.4219 138.5 99.2656 137.672 99.2656C136.812 99.2656 136.102 99.4531 135.539 99.8281C134.992 100.203 134.562 100.719 134.25 101.375C133.953 102.016 133.742 102.758 133.617 103.602C133.492 104.445 133.43 105.336 133.43 106.273V107.164C133.43 108.102 133.555 108.953 133.805 109.719C134.07 110.484 134.445 111.141 134.93 111.688C135.43 112.219 136.023 112.633 136.711 112.93C137.414 113.227 138.211 113.375 139.102 113.375C140.18 113.375 141.242 113.172 142.289 112.766C143.336 112.359 144.234 111.688 144.984 110.75L148.57 115.016C148.055 115.75 147.32 116.461 146.367 117.148C145.43 117.836 144.305 118.398 142.992 118.836C141.68 119.258 140.211 119.469 138.586 119.469ZM160.43 98.5156V128.75H152.531V93.6406H159.891L160.43 98.5156ZM175.992 106.016V106.508C175.992 108.352 175.781 110.062 175.359 111.641C174.938 113.219 174.312 114.594 173.484 115.766C172.656 116.938 171.625 117.852 170.391 118.508C169.172 119.148 167.758 119.469 166.148 119.469C164.633 119.469 163.328 119.133 162.234 118.461C161.141 117.789 160.227 116.859 159.492 115.672C158.758 114.484 158.164 113.125 157.711 111.594C157.258 110.062 156.898 108.445 156.633 106.742V106.109C156.898 104.281 157.258 102.586 157.711 101.023C158.164 99.4453 158.758 98.0703 159.492 96.8984C160.227 95.7266 161.133 94.8125 162.211 94.1562C163.305 93.5 164.609 93.1719 166.125 93.1719C167.734 93.1719 169.148 93.4766 170.367 94.0859C171.602 94.6953 172.633 95.5703 173.461 96.7109C174.305 97.8359 174.938 99.1875 175.359 100.766C175.781 102.344 175.992 104.094 175.992 106.016ZM168.094 106.508V106.016C168.094 105.031 168.023 104.133 167.883 103.32C167.742 102.492 167.516 101.773 167.203 101.164C166.906 100.555 166.508 100.086 166.008 99.7578C165.508 99.4297 164.891 99.2656 164.156 99.2656C163.312 99.2656 162.602 99.3984 162.023 99.6641C161.461 99.9141 161.008 100.305 160.664 100.836C160.336 101.352 160.102 102 159.961 102.781C159.836 103.547 159.781 104.445 159.797 105.477V107.398C159.766 108.586 159.883 109.633 160.148 110.539C160.414 111.43 160.875 112.125 161.531 112.625C162.188 113.125 163.078 113.375 164.203 113.375C164.953 113.375 165.578 113.203 166.078 112.859C166.578 112.5 166.977 112.008 167.273 111.383C167.57 110.742 167.781 110.008 167.906 109.18C168.031 108.352 168.094 107.461 168.094 106.508ZM187.852 83V119H179.93V83H187.852ZM191.742 106.578V106.086C191.742 104.227 192.008 102.516 192.539 100.953C193.07 99.375 193.852 98.0078 194.883 96.8516C195.914 95.6953 197.188 94.7969 198.703 94.1562C200.219 93.5 201.969 93.1719 203.953 93.1719C205.953 93.1719 207.711 93.5 209.227 94.1562C210.758 94.7969 212.039 95.6953 213.07 96.8516C214.102 98.0078 214.883 99.375 215.414 100.953C215.945 102.516 216.211 104.227 216.211 106.086V106.578C216.211 108.422 215.945 110.133 215.414 111.711C214.883 113.273 214.102 114.641 213.07 115.812C212.039 116.969 210.766 117.867 209.25 118.508C207.734 119.148 205.984 119.469 204 119.469C202.016 119.469 200.258 119.148 198.727 118.508C197.195 117.867 195.914 116.969 194.883 115.812C193.852 114.641 193.07 113.273 192.539 111.711C192.008 110.133 191.742 108.422 191.742 106.578ZM199.641 106.086V106.578C199.641 107.531 199.711 108.422 199.852 109.25C199.992 110.078 200.227 110.805 200.555 111.43C200.883 112.039 201.328 112.516 201.891 112.859C202.453 113.203 203.156 113.375 204 113.375C204.828 113.375 205.516 113.203 206.062 112.859C206.625 112.516 207.07 112.039 207.398 111.43C207.727 110.805 207.961 110.078 208.102 109.25C208.242 108.422 208.312 107.531 208.312 106.578V106.086C208.312 105.164 208.242 104.297 208.102 103.484C207.961 102.656 207.727 101.93 207.398 101.305C207.07 100.664 206.625 100.164 206.062 99.8047C205.5 99.4453 204.797 99.2656 203.953 99.2656C203.125 99.2656 202.43 99.4453 201.867 99.8047C201.32 100.164 200.883 100.664 200.555 101.305C200.227 101.93 199.992 102.656 199.852 103.484C199.711 104.297 199.641 105.164 199.641 106.086ZM227.133 116.023L233.695 93.6406H242.18L231.984 122.773C231.766 123.414 231.477 124.102 231.117 124.836C230.758 125.586 230.266 126.297 229.641 126.969C229.016 127.641 228.211 128.188 227.227 128.609C226.258 129.031 225.055 129.242 223.617 129.242C222.852 129.242 222.289 129.203 221.93 129.125C221.586 129.062 221.055 128.945 220.336 128.773V123.125C220.539 123.125 220.711 123.125 220.852 123.125C221.008 123.125 221.18 123.125 221.367 123.125C222.211 123.125 222.883 123.039 223.383 122.867C223.898 122.695 224.289 122.445 224.555 122.117C224.836 121.789 225.055 121.391 225.211 120.922L227.133 116.023ZM225.469 93.6406L230.461 111.383L231.328 119.75H226.031L217.008 93.6406H225.469ZM252.211 99.0078V119H244.312V93.6406H251.719L252.211 99.0078ZM251.25 105.453L249.445 105.5C249.445 103.719 249.656 102.078 250.078 100.578C250.5 99.0781 251.125 97.7734 251.953 96.6641C252.781 95.5547 253.797 94.6953 255 94.0859C256.219 93.4766 257.625 93.1719 259.219 93.1719C260.328 93.1719 261.336 93.3438 262.242 93.6875C263.148 94.0156 263.93 94.5391 264.586 95.2578C265.242 95.9609 265.742 96.8828 266.086 98.0234C266.445 99.1484 266.625 100.5 266.625 102.078V119H258.727V103.086C258.727 102.008 258.602 101.195 258.352 100.648C258.117 100.102 257.773 99.7344 257.32 99.5469C256.867 99.3594 256.312 99.2656 255.656 99.2656C254.969 99.2656 254.352 99.4219 253.805 99.7344C253.258 100.047 252.789 100.484 252.398 101.047C252.023 101.594 251.734 102.242 251.531 102.992C251.344 103.742 251.25 104.562 251.25 105.453ZM265.734 105.453L263.531 105.5C263.531 103.719 263.727 102.078 264.117 100.578C264.523 99.0781 265.125 97.7734 265.922 96.6641C266.734 95.5547 267.742 94.6953 268.945 94.0859C270.148 93.4766 271.547 93.1719 273.141 93.1719C274.297 93.1719 275.359 93.3438 276.328 93.6875C277.297 94.0312 278.133 94.5859 278.836 95.3516C279.539 96.1172 280.086 97.1328 280.477 98.3984C280.867 99.6484 281.062 101.195 281.062 103.039V119H273.141V103.039C273.141 101.992 273.016 101.203 272.766 100.672C272.531 100.125 272.188 99.7578 271.734 99.5703C271.281 99.3672 270.742 99.2656 270.117 99.2656C269.367 99.2656 268.719 99.4219 268.172 99.7344C267.625 100.047 267.164 100.484 266.789 101.047C266.43 101.594 266.164 102.242 265.992 102.992C265.82 103.742 265.734 104.562 265.734 105.453ZM297.867 119.469C295.805 119.469 293.961 119.148 292.336 118.508C290.711 117.852 289.336 116.953 288.211 115.812C287.102 114.672 286.25 113.359 285.656 111.875C285.078 110.391 284.789 108.82 284.789 107.164V106.273C284.789 104.414 285.047 102.695 285.562 101.117C286.078 99.5234 286.844 98.1328 287.859 96.9453C288.875 95.7578 290.148 94.8359 291.68 94.1797C293.211 93.5078 294.992 93.1719 297.023 93.1719C298.82 93.1719 300.43 93.4609 301.852 94.0391C303.273 94.6172 304.477 95.4453 305.461 96.5234C306.461 97.6016 307.219 98.9062 307.734 100.438C308.266 101.969 308.531 103.688 308.531 105.594V108.805H287.812V103.859H300.82V103.25C300.836 102.406 300.688 101.688 300.375 101.094C300.078 100.5 299.641 100.047 299.062 99.7344C298.484 99.4219 297.781 99.2656 296.953 99.2656C296.094 99.2656 295.383 99.4531 294.82 99.8281C294.273 100.203 293.844 100.719 293.531 101.375C293.234 102.016 293.023 102.758 292.898 103.602C292.773 104.445 292.711 105.336 292.711 106.273V107.164C292.711 108.102 292.836 108.953 293.086 109.719C293.352 110.484 293.727 111.141 294.211 111.688C294.711 112.219 295.305 112.633 295.992 112.93C296.695 113.227 297.492 113.375 298.383 113.375C299.461 113.375 300.523 113.172 301.57 112.766C302.617 112.359 303.516 111.688 304.266 110.75L307.852 115.016C307.336 115.75 306.602 116.461 305.648 117.148C304.711 117.836 303.586 118.398 302.273 118.836C300.961 119.258 299.492 119.469 297.867 119.469ZM319.5 99.0547V119H311.602V93.6406H319.008L319.5 99.0547ZM318.562 105.453L316.711 105.5C316.711 103.562 316.945 101.836 317.414 100.32C317.883 98.7891 318.547 97.4922 319.406 96.4297C320.266 95.3672 321.289 94.5625 322.477 94.0156C323.68 93.4531 325.016 93.1719 326.484 93.1719C327.656 93.1719 328.727 93.3438 329.695 93.6875C330.68 94.0312 331.523 94.5859 332.227 95.3516C332.945 96.1172 333.492 97.1328 333.867 98.3984C334.258 99.6484 334.453 101.195 334.453 103.039V119H326.508V103.016C326.508 102 326.367 101.227 326.086 100.695C325.805 100.148 325.398 99.7734 324.867 99.5703C324.336 99.3672 323.688 99.2656 322.922 99.2656C322.109 99.2656 321.422 99.4219 320.859 99.7344C320.297 100.047 319.844 100.484 319.5 101.047C319.172 101.594 318.93 102.242 318.773 102.992C318.633 103.742 318.562 104.562 318.562 105.453ZM352.195 93.6406V99.125H336.914V93.6406H352.195ZM340.125 87.3359H348.023V110.727C348.023 111.398 348.102 111.922 348.258 112.297C348.414 112.656 348.68 112.914 349.055 113.07C349.445 113.211 349.961 113.281 350.602 113.281C351.055 113.281 351.43 113.273 351.727 113.258C352.023 113.227 352.305 113.188 352.57 113.141V118.789C351.898 119.008 351.195 119.172 350.461 119.281C349.727 119.406 348.945 119.469 348.117 119.469C346.43 119.469 344.984 119.203 343.781 118.672C342.594 118.141 341.688 117.305 341.062 116.164C340.438 115.023 340.125 113.539 340.125 111.711V87.3359Z" fill="black"/>
<path d="M1134 0H1348C1356.28 0 1363 6.71573 1363 15V148C1363 156.284 1356.28 163 1348 163H1134V0Z" fill="#6C63FF"/>
<path d="M1212.5 117.5L1212.5 45.5L1284.5 45.5L1284.5 117.5L1212.5 117.5Z" fill="white" fill-opacity="0.01"/>
<path d="M1221.5 81.5125L1221.5 108.5L1275.5 108.5L1275.5 81.5" stroke="white" stroke-width="7.24" stroke-linecap="round" stroke-linejoin="round"/>
<path d="M1262 68L1248.5 54.5L1235 68" stroke="white" stroke-width="7.24" stroke-linecap="round" stroke-linejoin="round"/>
<path d="M1248.49 93.4999L1248.49 54.5" stroke="white" stroke-width="7.24" stroke-linecap="round" stroke-linejoin="round"/>
</svg>
