<svg width="1363" height="163" viewBox="0 0 1363 163" fill="none" xmlns="http://www.w3.org/2000/svg">
<path d="M0 15C0 6.71573 6.71573 0 15 0H37V163H15C6.71573 163 0 156.284 0 148V15Z" fill="#424242"/>
<rect width="1097" height="163" transform="translate(37)" fill="#F0F0F0"/>
<path d="M101.906 53.9219L94.3945 51.2383V48.0859L104.602 52.375V54.6367L101.906 53.9219ZM94.3945 56.1719L101.918 53.4297L104.602 52.7852V55.0352L94.3945 59.3242V56.1719ZM119.801 55.7617V43.9375H123.305V55.7617C123.305 56.9023 123.055 57.8828 122.555 58.7031C122.055 59.5156 121.371 60.1406 120.504 60.5781C119.645 61.0156 118.676 61.2344 117.598 61.2344C116.48 61.2344 115.492 61.0469 114.633 60.6719C113.773 60.2969 113.098 59.7227 112.605 58.9492C112.113 58.168 111.867 57.1797 111.867 55.9844H115.395C115.395 56.6094 115.48 57.1055 115.652 57.4727C115.832 57.8398 116.086 58.1016 116.414 58.2578C116.742 58.4141 117.137 58.4922 117.598 58.4922C118.043 58.4922 118.43 58.3867 118.758 58.1758C119.086 57.9648 119.34 57.6562 119.52 57.25C119.707 56.8438 119.801 56.3477 119.801 55.7617ZM132.938 58.1406V52.4922C132.938 52.0859 132.871 51.7383 132.738 51.4492C132.605 51.1523 132.398 50.9219 132.117 50.7578C131.844 50.5938 131.488 50.5117 131.051 50.5117C130.676 50.5117 130.352 50.5781 130.078 50.7109C129.805 50.8359 129.594 51.0195 129.445 51.2617C129.297 51.4961 129.223 51.7734 129.223 52.0938H125.848C125.848 51.5547 125.973 51.043 126.223 50.5586C126.473 50.0742 126.836 49.6484 127.312 49.2812C127.789 48.9062 128.355 48.6133 129.012 48.4023C129.676 48.1914 130.418 48.0859 131.238 48.0859C132.223 48.0859 133.098 48.25 133.863 48.5781C134.629 48.9062 135.23 49.3984 135.668 50.0547C136.113 50.7109 136.336 51.5312 136.336 52.5156V57.9414C136.336 58.6367 136.379 59.207 136.465 59.6523C136.551 60.0898 136.676 60.4727 136.84 60.8008V61H133.43C133.266 60.6562 133.141 60.2266 133.055 59.7109C132.977 59.1875 132.938 58.6641 132.938 58.1406ZM133.383 53.2773L133.406 55.1875H131.52C131.074 55.1875 130.688 55.2383 130.359 55.3398C130.031 55.4414 129.762 55.5859 129.551 55.7734C129.34 55.9531 129.184 56.1641 129.082 56.4062C128.988 56.6484 128.941 56.9141 128.941 57.2031C128.941 57.4922 129.008 57.7539 129.141 57.9883C129.273 58.2148 129.465 58.3945 129.715 58.5273C129.965 58.6523 130.258 58.7148 130.594 58.7148C131.102 58.7148 131.543 58.6133 131.918 58.4102C132.293 58.207 132.582 57.957 132.785 57.6602C132.996 57.3633 133.105 57.082 133.113 56.8164L134.004 58.2461C133.879 58.5664 133.707 58.8984 133.488 59.2422C133.277 59.5859 133.008 59.9102 132.68 60.2148C132.352 60.5117 131.957 60.7578 131.496 60.9531C131.035 61.1406 130.488 61.2344 129.855 61.2344C129.051 61.2344 128.32 61.0742 127.664 60.7539C127.016 60.4258 126.5 59.9766 126.117 59.4062C125.742 58.8281 125.555 58.1719 125.555 57.4375C125.555 56.7734 125.68 56.1836 125.93 55.668C126.18 55.1523 126.547 54.7188 127.031 54.3672C127.523 54.0078 128.137 53.7383 128.871 53.5586C129.605 53.3711 130.457 53.2773 131.426 53.2773H133.383ZM140.754 43.9375H143.73L148.113 56.4648L152.496 43.9375H155.473L149.309 61H146.918L140.754 43.9375ZM139.148 43.9375H142.113L142.652 56.1484V61H139.148V43.9375ZM154.113 43.9375H157.09V61H153.574V56.1484L154.113 43.9375ZM166.805 58.1406V52.4922C166.805 52.0859 166.738 51.7383 166.605 51.4492C166.473 51.1523 166.266 50.9219 165.984 50.7578C165.711 50.5938 165.355 50.5117 164.918 50.5117C164.543 50.5117 164.219 50.5781 163.945 50.7109C163.672 50.8359 163.461 51.0195 163.312 51.2617C163.164 51.4961 163.09 51.7734 163.09 52.0938H159.715C159.715 51.5547 159.84 51.043 160.09 50.5586C160.34 50.0742 160.703 49.6484 161.18 49.2812C161.656 48.9062 162.223 48.6133 162.879 48.4023C163.543 48.1914 164.285 48.0859 165.105 48.0859C166.09 48.0859 166.965 48.25 167.73 48.5781C168.496 48.9062 169.098 49.3984 169.535 50.0547C169.98 50.7109 170.203 51.5312 170.203 52.5156V57.9414C170.203 58.6367 170.246 59.207 170.332 59.6523C170.418 60.0898 170.543 60.4727 170.707 60.8008V61H167.297C167.133 60.6562 167.008 60.2266 166.922 59.7109C166.844 59.1875 166.805 58.6641 166.805 58.1406ZM167.25 53.2773L167.273 55.1875H165.387C164.941 55.1875 164.555 55.2383 164.227 55.3398C163.898 55.4414 163.629 55.5859 163.418 55.7734C163.207 55.9531 163.051 56.1641 162.949 56.4062C162.855 56.6484 162.809 56.9141 162.809 57.2031C162.809 57.4922 162.875 57.7539 163.008 57.9883C163.141 58.2148 163.332 58.3945 163.582 58.5273C163.832 58.6523 164.125 58.7148 164.461 58.7148C164.969 58.7148 165.41 58.6133 165.785 58.4102C166.16 58.207 166.449 57.957 166.652 57.6602C166.863 57.3633 166.973 57.082 166.98 56.8164L167.871 58.2461C167.746 58.5664 167.574 58.8984 167.355 59.2422C167.145 59.5859 166.875 59.9102 166.547 60.2148C166.219 60.5117 165.824 60.7578 165.363 60.9531C164.902 61.1406 164.355 61.2344 163.723 61.2344C162.918 61.2344 162.188 61.0742 161.531 60.7539C160.883 60.4258 160.367 59.9766 159.984 59.4062C159.609 58.8281 159.422 58.1719 159.422 57.4375C159.422 56.7734 159.547 56.1836 159.797 55.668C160.047 55.1523 160.414 54.7188 160.898 54.3672C161.391 54.0078 162.004 53.7383 162.738 53.5586C163.473 53.3711 164.324 53.2773 165.293 53.2773H167.25ZM179.016 48.3203V50.7109H171.633V48.3203H179.016ZM173.461 45.1914H176.836V57.1797C176.836 57.5469 176.883 57.8281 176.977 58.0234C177.078 58.2188 177.227 58.3555 177.422 58.4336C177.617 58.5039 177.863 58.5391 178.16 58.5391C178.371 58.5391 178.559 58.5312 178.723 58.5156C178.895 58.4922 179.039 58.4688 179.156 58.4453L179.168 60.9297C178.879 61.0234 178.566 61.0977 178.23 61.1523C177.895 61.207 177.523 61.2344 177.117 61.2344C176.375 61.2344 175.727 61.1133 175.172 60.8711C174.625 60.6211 174.203 60.2227 173.906 59.6758C173.609 59.1289 173.461 58.4102 173.461 57.5195V45.1914ZM186.773 61.2344C185.789 61.2344 184.906 61.0781 184.125 60.7656C183.344 60.4453 182.68 60.0039 182.133 59.4414C181.594 58.8789 181.18 58.2266 180.891 57.4844C180.602 56.7344 180.457 55.9375 180.457 55.0938V54.625C180.457 53.6641 180.594 52.7852 180.867 51.9883C181.141 51.1914 181.531 50.5 182.039 49.9141C182.555 49.3281 183.18 48.8789 183.914 48.5664C184.648 48.2461 185.477 48.0859 186.398 48.0859C187.297 48.0859 188.094 48.2344 188.789 48.5312C189.484 48.8281 190.066 49.25 190.535 49.7969C191.012 50.3438 191.371 51 191.613 51.7656C191.855 52.5234 191.977 53.3672 191.977 54.2969V55.7031H181.898V53.4531H188.66V53.1953C188.66 52.7266 188.574 52.3086 188.402 51.9414C188.238 51.5664 187.988 51.2695 187.652 51.0508C187.316 50.832 186.887 50.7227 186.363 50.7227C185.918 50.7227 185.535 50.8203 185.215 51.0156C184.895 51.2109 184.633 51.4844 184.43 51.8359C184.234 52.1875 184.086 52.6016 183.984 53.0781C183.891 53.5469 183.844 54.0625 183.844 54.625V55.0938C183.844 55.6016 183.914 56.0703 184.055 56.5C184.203 56.9297 184.41 57.3008 184.676 57.6133C184.949 57.9258 185.277 58.168 185.66 58.3398C186.051 58.5117 186.492 58.5977 186.984 58.5977C187.594 58.5977 188.16 58.4805 188.684 58.2461C189.215 58.0039 189.672 57.6406 190.055 57.1562L191.695 58.9375C191.43 59.3203 191.066 59.6875 190.605 60.0391C190.152 60.3906 189.605 60.6797 188.965 60.9062C188.324 61.125 187.594 61.2344 186.773 61.2344Z" fill="#888888"/>
<path d="M109.219 107.422H100.734V101.07H109.219C110.375 101.07 111.312 100.875 112.031 100.484C112.75 100.094 113.273 99.5547 113.602 98.8672C113.945 98.1641 114.117 97.375 114.117 96.5C114.117 95.5625 113.945 94.6953 113.602 93.8984C113.273 93.1016 112.75 92.4609 112.031 91.9766C111.312 91.4766 110.375 91.2266 109.219 91.2266H103.828V119H95.6016V84.875H109.219C111.953 84.875 114.305 85.375 116.273 86.375C118.258 87.375 119.781 88.75 120.844 90.5C121.906 92.2344 122.438 94.2188 122.438 96.4531C122.438 98.6562 121.906 100.578 120.844 102.219C119.781 103.859 118.258 105.141 116.273 106.062C114.305 106.969 111.953 107.422 109.219 107.422ZM134.461 99.9219V119H126.562V93.6406H133.945L134.461 99.9219ZM141.961 93.4531L141.82 100.789C141.508 100.758 141.086 100.719 140.555 100.672C140.023 100.625 139.578 100.602 139.219 100.602C138.297 100.602 137.5 100.711 136.828 100.93C136.172 101.133 135.625 101.445 135.188 101.867C134.766 102.273 134.453 102.789 134.25 103.414C134.062 104.039 133.977 104.766 133.992 105.594L132.562 104.656C132.562 102.953 132.727 101.406 133.055 100.016C133.398 98.6094 133.883 97.3984 134.508 96.3828C135.133 95.3516 135.891 94.5625 136.781 94.0156C137.672 93.4531 138.672 93.1719 139.781 93.1719C140.172 93.1719 140.555 93.1953 140.93 93.2422C141.32 93.2891 141.664 93.3594 141.961 93.4531ZM142.852 106.578V106.086C142.852 104.227 143.117 102.516 143.648 100.953C144.18 99.375 144.961 98.0078 145.992 96.8516C147.023 95.6953 148.297 94.7969 149.812 94.1562C151.328 93.5 153.078 93.1719 155.062 93.1719C157.062 93.1719 158.82 93.5 160.336 94.1562C161.867 94.7969 163.148 95.6953 164.18 96.8516C165.211 98.0078 165.992 99.375 166.523 100.953C167.055 102.516 167.32 104.227 167.32 106.086V106.578C167.32 108.422 167.055 110.133 166.523 111.711C165.992 113.273 165.211 114.641 164.18 115.812C163.148 116.969 161.875 117.867 160.359 118.508C158.844 119.148 157.094 119.469 155.109 119.469C153.125 119.469 151.367 119.148 149.836 118.508C148.305 117.867 147.023 116.969 145.992 115.812C144.961 114.641 144.18 113.273 143.648 111.711C143.117 110.133 142.852 108.422 142.852 106.578ZM150.75 106.086V106.578C150.75 107.531 150.82 108.422 150.961 109.25C151.102 110.078 151.336 110.805 151.664 111.43C151.992 112.039 152.438 112.516 153 112.859C153.562 113.203 154.266 113.375 155.109 113.375C155.938 113.375 156.625 113.203 157.172 112.859C157.734 112.516 158.18 112.039 158.508 111.43C158.836 110.805 159.07 110.078 159.211 109.25C159.352 108.422 159.422 107.531 159.422 106.578V106.086C159.422 105.164 159.352 104.297 159.211 103.484C159.07 102.656 158.836 101.93 158.508 101.305C158.18 100.664 157.734 100.164 157.172 99.8047C156.609 99.4453 155.906 99.2656 155.062 99.2656C154.234 99.2656 153.539 99.4453 152.977 99.8047C152.43 100.164 151.992 100.664 151.664 101.305C151.336 101.93 151.102 102.656 150.961 103.484C150.82 104.297 150.75 105.164 150.75 106.086ZM171.422 93.6406H179.344V119.82C179.344 121.852 178.953 123.562 178.172 124.953C177.391 126.359 176.273 127.422 174.82 128.141C173.367 128.875 171.633 129.242 169.617 129.242C168.945 129.242 168.328 129.211 167.766 129.148C167.188 129.102 166.555 129 165.867 128.844V122.867C166.273 122.93 166.648 122.977 166.992 123.008C167.336 123.055 167.711 123.078 168.117 123.078C168.836 123.078 169.438 122.961 169.922 122.727C170.406 122.492 170.773 122.133 171.023 121.648C171.289 121.164 171.422 120.555 171.422 119.82V93.6406ZM170.836 87.1016C170.836 85.9766 171.242 85.0547 172.055 84.3359C172.867 83.6172 173.922 83.2578 175.219 83.2578C176.516 83.2578 177.57 83.6172 178.383 84.3359C179.195 85.0547 179.602 85.9766 179.602 87.1016C179.602 88.2266 179.195 89.1484 178.383 89.8672C177.57 90.5859 176.516 90.9453 175.219 90.9453C173.922 90.9453 172.867 90.5859 172.055 89.8672C171.242 89.1484 170.836 88.2266 170.836 87.1016ZM196.102 119.469C194.039 119.469 192.195 119.148 190.57 118.508C188.945 117.852 187.57 116.953 186.445 115.812C185.336 114.672 184.484 113.359 183.891 111.875C183.312 110.391 183.023 108.82 183.023 107.164V106.273C183.023 104.414 183.281 102.695 183.797 101.117C184.312 99.5234 185.078 98.1328 186.094 96.9453C187.109 95.7578 188.383 94.8359 189.914 94.1797C191.445 93.5078 193.227 93.1719 195.258 93.1719C197.055 93.1719 198.664 93.4609 200.086 94.0391C201.508 94.6172 202.711 95.4453 203.695 96.5234C204.695 97.6016 205.453 98.9062 205.969 100.438C206.5 101.969 206.766 103.688 206.766 105.594V108.805H186.047V103.859H199.055V103.25C199.07 102.406 198.922 101.688 198.609 101.094C198.312 100.5 197.875 100.047 197.297 99.7344C196.719 99.4219 196.016 99.2656 195.188 99.2656C194.328 99.2656 193.617 99.4531 193.055 99.8281C192.508 100.203 192.078 100.719 191.766 101.375C191.469 102.016 191.258 102.758 191.133 103.602C191.008 104.445 190.945 105.336 190.945 106.273V107.164C190.945 108.102 191.07 108.953 191.32 109.719C191.586 110.484 191.961 111.141 192.445 111.688C192.945 112.219 193.539 112.633 194.227 112.93C194.93 113.227 195.727 113.375 196.617 113.375C197.695 113.375 198.758 113.172 199.805 112.766C200.852 112.359 201.75 111.688 202.5 110.75L206.086 115.016C205.57 115.75 204.836 116.461 203.883 117.148C202.945 117.836 201.82 118.398 200.508 118.836C199.195 119.258 197.727 119.469 196.102 119.469ZM220.688 113.375C221.422 113.375 222.047 113.242 222.562 112.977C223.094 112.695 223.492 112.305 223.758 111.805C224.039 111.289 224.172 110.672 224.156 109.953H231.586C231.602 111.859 231.133 113.531 230.18 114.969C229.242 116.391 227.961 117.5 226.336 118.297C224.727 119.078 222.906 119.469 220.875 119.469C218.891 119.469 217.156 119.148 215.672 118.508C214.188 117.852 212.945 116.945 211.945 115.789C210.961 114.617 210.219 113.25 209.719 111.688C209.234 110.125 208.992 108.43 208.992 106.602V106.062C208.992 104.234 209.234 102.539 209.719 100.977C210.219 99.3984 210.961 98.0312 211.945 96.875C212.945 95.7031 214.18 94.7969 215.648 94.1562C217.133 93.5 218.859 93.1719 220.828 93.1719C222.938 93.1719 224.797 93.5703 226.406 94.3672C228.031 95.1641 229.305 96.3203 230.227 97.8359C231.148 99.3516 231.602 101.188 231.586 103.344H224.156C224.172 102.578 224.055 101.891 223.805 101.281C223.555 100.672 223.164 100.188 222.633 99.8281C222.117 99.4531 221.453 99.2656 220.641 99.2656C219.828 99.2656 219.172 99.4453 218.672 99.8047C218.172 100.164 217.789 100.664 217.523 101.305C217.273 101.93 217.102 102.648 217.008 103.461C216.93 104.273 216.891 105.141 216.891 106.062V106.602C216.891 107.539 216.93 108.422 217.008 109.25C217.102 110.062 217.281 110.781 217.547 111.406C217.812 112.016 218.195 112.5 218.695 112.859C219.195 113.203 219.859 113.375 220.688 113.375ZM248.32 93.6406V99.125H233.039V93.6406H248.32ZM236.25 87.3359H244.148V110.727C244.148 111.398 244.227 111.922 244.383 112.297C244.539 112.656 244.805 112.914 245.18 113.07C245.57 113.211 246.086 113.281 246.727 113.281C247.18 113.281 247.555 113.273 247.852 113.258C248.148 113.227 248.43 113.188 248.695 113.141V118.789C248.023 119.008 247.32 119.172 246.586 119.281C245.852 119.406 245.07 119.469 244.242 119.469C242.555 119.469 241.109 119.203 239.906 118.672C238.719 118.141 237.812 117.305 237.188 116.164C236.562 115.023 236.25 113.539 236.25 111.711V87.3359ZM292.664 101.258V102.641C292.664 105.25 292.297 107.594 291.562 109.672C290.844 111.734 289.82 113.5 288.492 114.969C287.164 116.422 285.594 117.539 283.781 118.32C281.969 119.086 279.969 119.469 277.781 119.469C275.578 119.469 273.562 119.086 271.734 118.32C269.922 117.539 268.344 116.422 267 114.969C265.672 113.5 264.641 111.734 263.906 109.672C263.188 107.594 262.828 105.25 262.828 102.641V101.258C262.828 98.6484 263.188 96.3047 263.906 94.2266C264.641 92.1484 265.664 90.3828 266.977 88.9297C268.305 87.4609 269.875 86.3438 271.688 85.5781C273.516 84.7969 275.531 84.4062 277.734 84.4062C279.922 84.4062 281.922 84.7969 283.734 85.5781C285.562 86.3438 287.141 87.4609 288.469 88.9297C289.797 90.3828 290.828 92.1484 291.562 94.2266C292.297 96.3047 292.664 98.6484 292.664 101.258ZM284.32 102.641V101.211C284.32 99.5234 284.172 98.0391 283.875 96.7578C283.594 95.4609 283.172 94.375 282.609 93.5C282.047 92.625 281.352 91.9688 280.523 91.5312C279.711 91.0781 278.781 90.8516 277.734 90.8516C276.641 90.8516 275.688 91.0781 274.875 91.5312C274.062 91.9688 273.383 92.625 272.836 93.5C272.289 94.375 271.875 95.4609 271.594 96.7578C271.328 98.0391 271.195 99.5234 271.195 101.211V102.641C271.195 104.312 271.328 105.797 271.594 107.094C271.875 108.375 272.289 109.461 272.836 110.352C273.398 111.242 274.086 111.914 274.898 112.367C275.727 112.82 276.688 113.047 277.781 113.047C278.828 113.047 279.758 112.82 280.57 112.367C281.383 111.914 282.062 111.242 282.609 110.352C283.172 109.461 283.594 108.375 283.875 107.094C284.172 105.797 284.32 104.312 284.32 102.641ZM305.695 113.586L310.688 93.6406H319.008L310.711 119H305.789L305.695 113.586ZM302.742 93.6406L307.664 113.586L307.617 119H302.672L294.398 93.6406H302.742ZM333.305 119.469C331.242 119.469 329.398 119.148 327.773 118.508C326.148 117.852 324.773 116.953 323.648 115.812C322.539 114.672 321.688 113.359 321.094 111.875C320.516 110.391 320.227 108.82 320.227 107.164V106.273C320.227 104.414 320.484 102.695 321 101.117C321.516 99.5234 322.281 98.1328 323.297 96.9453C324.312 95.7578 325.586 94.8359 327.117 94.1797C328.648 93.5078 330.43 93.1719 332.461 93.1719C334.258 93.1719 335.867 93.4609 337.289 94.0391C338.711 94.6172 339.914 95.4453 340.898 96.5234C341.898 97.6016 342.656 98.9062 343.172 100.438C343.703 101.969 343.969 103.688 343.969 105.594V108.805H323.25V103.859H336.258V103.25C336.273 102.406 336.125 101.688 335.812 101.094C335.516 100.5 335.078 100.047 334.5 99.7344C333.922 99.4219 333.219 99.2656 332.391 99.2656C331.531 99.2656 330.82 99.4531 330.258 99.8281C329.711 100.203 329.281 100.719 328.969 101.375C328.672 102.016 328.461 102.758 328.336 103.602C328.211 104.445 328.148 105.336 328.148 106.273V107.164C328.148 108.102 328.273 108.953 328.523 109.719C328.789 110.484 329.164 111.141 329.648 111.688C330.148 112.219 330.742 112.633 331.43 112.93C332.133 113.227 332.93 113.375 333.82 113.375C334.898 113.375 335.961 113.172 337.008 112.766C338.055 112.359 338.953 111.688 339.703 110.75L343.289 115.016C342.773 115.75 342.039 116.461 341.086 117.148C340.148 117.836 339.023 118.398 337.711 118.836C336.398 119.258 334.93 119.469 333.305 119.469ZM355.148 99.9219V119H347.25V93.6406H354.633L355.148 99.9219ZM362.648 93.4531L362.508 100.789C362.195 100.758 361.773 100.719 361.242 100.672C360.711 100.625 360.266 100.602 359.906 100.602C358.984 100.602 358.188 100.711 357.516 100.93C356.859 101.133 356.312 101.445 355.875 101.867C355.453 102.273 355.141 102.789 354.938 103.414C354.75 104.039 354.664 104.766 354.68 105.594L353.25 104.656C353.25 102.953 353.414 101.406 353.742 100.016C354.086 98.6094 354.57 97.3984 355.195 96.3828C355.82 95.3516 356.578 94.5625 357.469 94.0156C358.359 93.4531 359.359 93.1719 360.469 93.1719C360.859 93.1719 361.242 93.1953 361.617 93.2422C362.008 93.2891 362.352 93.3594 362.648 93.4531ZM374.93 113.586L379.922 93.6406H388.242L379.945 119H375.023L374.93 113.586ZM371.977 93.6406L376.898 113.586L376.852 119H371.906L363.633 93.6406H371.977ZM398.93 93.6406V119H391.008V93.6406H398.93ZM390.539 87.1016C390.539 85.9766 390.945 85.0547 391.758 84.3359C392.57 83.6172 393.625 83.2578 394.922 83.2578C396.219 83.2578 397.273 83.6172 398.086 84.3359C398.898 85.0547 399.305 85.9766 399.305 87.1016C399.305 88.2266 398.898 89.1484 398.086 89.8672C397.273 90.5859 396.219 90.9453 394.922 90.9453C393.625 90.9453 392.57 90.5859 391.758 89.8672C390.945 89.1484 390.539 88.2266 390.539 87.1016ZM416.086 119.469C414.023 119.469 412.18 119.148 410.555 118.508C408.93 117.852 407.555 116.953 406.43 115.812C405.32 114.672 404.469 113.359 403.875 111.875C403.297 110.391 403.008 108.82 403.008 107.164V106.273C403.008 104.414 403.266 102.695 403.781 101.117C404.297 99.5234 405.062 98.1328 406.078 96.9453C407.094 95.7578 408.367 94.8359 409.898 94.1797C411.43 93.5078 413.211 93.1719 415.242 93.1719C417.039 93.1719 418.648 93.4609 420.07 94.0391C421.492 94.6172 422.695 95.4453 423.68 96.5234C424.68 97.6016 425.438 98.9062 425.953 100.438C426.484 101.969 426.75 103.688 426.75 105.594V108.805H406.031V103.859H419.039V103.25C419.055 102.406 418.906 101.688 418.594 101.094C418.297 100.5 417.859 100.047 417.281 99.7344C416.703 99.4219 416 99.2656 415.172 99.2656C414.312 99.2656 413.602 99.4531 413.039 99.8281C412.492 100.203 412.062 100.719 411.75 101.375C411.453 102.016 411.242 102.758 411.117 103.602C410.992 104.445 410.93 105.336 410.93 106.273V107.164C410.93 108.102 411.055 108.953 411.305 109.719C411.57 110.484 411.945 111.141 412.43 111.688C412.93 112.219 413.523 112.633 414.211 112.93C414.914 113.227 415.711 113.375 416.602 113.375C417.68 113.375 418.742 113.172 419.789 112.766C420.836 112.359 421.734 111.688 422.484 110.75L426.07 115.016C425.555 115.75 424.82 116.461 423.867 117.148C422.93 117.836 421.805 118.398 420.492 118.836C419.18 119.258 417.711 119.469 416.086 119.469ZM437.672 111.453L442.359 93.6406H447.305L445.547 102.57L440.906 119H436.945L437.672 111.453ZM435.82 93.6406L438.727 111.312L439.055 119H434.25L428.25 93.6406H435.82ZM451.477 110.938L454.406 93.6406H461.977L456.023 119H451.219L451.477 110.938ZM447.867 93.6406L452.602 111.406L453.328 119H449.32L444.773 102.617L443.086 93.6406H447.867Z" fill="black"/>
<path d="M1134 0H1348C1356.28 0 1363 6.71573 1363 15V148C1363 156.284 1356.28 163 1348 163H1134V0Z" fill="#6C63FF"/>
<path d="M1234.26 103.786H1262.74V109.357H1234.26V103.786ZM1239.96 114.929H1257.04V120.5H1239.96V114.929ZM1248.5 42.5C1240.95 42.5 1233.71 45.4349 1228.37 50.6592C1223.03 55.8834 1220.03 62.969 1220.03 70.3571C1219.84 74.4057 1220.63 78.4412 1222.34 82.1315C1224.05 85.8219 1226.64 89.0616 1229.88 91.5843C1232.73 94.175 1234.26 95.6514 1234.26 98.2143H1239.96C1239.96 93.0886 1236.8 90.2193 1233.72 87.4614C1231.06 85.4676 1228.94 82.8658 1227.55 79.8838C1226.15 76.9019 1225.53 73.6308 1225.72 70.3571C1225.72 64.4466 1228.12 58.7781 1232.39 54.5988C1236.67 50.4194 1242.46 48.0714 1248.5 48.0714C1254.54 48.0714 1260.33 50.4194 1264.61 54.5988C1268.88 58.7781 1271.28 64.4466 1271.28 70.3571C1271.47 73.6333 1270.84 76.9059 1269.44 79.888C1268.04 82.8701 1265.92 85.4706 1263.25 87.4614C1260.2 90.2471 1257.04 93.0329 1257.04 98.2143H1262.74C1262.74 95.6514 1264.25 94.175 1267.12 91.5564C1270.36 89.0381 1272.94 85.8031 1274.66 82.1176C1276.37 78.4321 1277.16 74.4014 1276.97 70.3571C1276.97 66.6989 1276.24 63.0765 1274.81 59.6967C1273.37 56.3169 1271.28 53.2459 1268.63 50.6592C1265.99 48.0724 1262.85 46.0205 1259.4 44.6205C1255.94 43.2205 1252.24 42.5 1248.5 42.5Z" fill="white"/>
</svg>
